<?xml version="1.0" encoding="utf-8"?>
<!-- Generator: Adobe Illustrator 24.0.1, SVG Export Plug-In . SVG Version: 6.00 Build 0)  -->
<svg version="1.1" id="Layer_1" xmlns="http://www.w3.org/2000/svg" xmlns:xlink="http://www.w3.org/1999/xlink" x="0px" y="0px"
	 viewBox="0 0 48 48" style="enable-background:new 0 0 48 48;" xml:space="preserve">
<style type="text/css">
	.st0{fill:#FFFFFF;}
</style>
<g>
	<path class="st0" d="M24.34,20.56L24.34,20.56c-2.18,0-3.95,1.77-3.95,3.95c0,0,0,0,0,0c0,2.18,1.77,3.95,3.95,3.95c0,0,0,0,0,0
		c2.18,0,3.95-1.77,3.95-3.95C28.3,22.33,26.53,20.56,24.34,20.56z"/>
	<path class="st0" d="M24.34,0.33c-13.25,0-24,10.75-24,24c0,13.25,10.75,24,24,24c13.25,0,24-10.75,24-24
		C48.34,11.08,37.6,0.33,24.34,0.33z M35.63,25.36c0,2.14-0.02,2.57-0.07,3.62c-0.02,0.94-0.2,1.86-0.53,2.74
		c-0.28,0.75-0.73,1.44-1.3,2c-0.56,0.57-1.25,1.02-2,1.3c-0.88,0.33-1.81,0.51-2.75,0.53c-0.99,0.04-1.43,0.07-3.26,0.07h-2.42
		c-2.14,0-2.57-0.02-3.62-0.07c-0.94-0.02-1.86-0.19-2.74-0.52c-0.75-0.28-1.44-0.73-2-1.3c-0.57-0.56-1.02-1.25-1.3-2
		c-0.33-0.88-0.51-1.81-0.53-2.74c-0.05-1-0.07-1.44-0.07-3.33V23c0.01-1.89,0.02-2.33,0.07-3.33c0.02-0.94,0.2-1.86,0.53-2.74
		c0.28-0.75,0.73-1.44,1.3-2c0.56-0.57,1.25-1.02,2-1.3c0.88-0.33,1.81-0.51,2.74-0.53c0.94-0.04,1.38-0.06,2.97-0.07h3.01l0,0
		c1.89,0.01,2.33,0.02,3.33,0.07c0.94,0.02,1.86,0.2,2.74,0.52c0.75,0.28,1.44,0.73,2,1.3c0.57,0.56,1.02,1.25,1.3,2
		c0.33,0.88,0.51,1.81,0.53,2.75c0.05,1.05,0.07,1.48,0.07,3.62V25.36z"/>
	<path class="st0" d="M32.93,17.83c-0.18-0.48-0.46-0.91-0.82-1.27c-0.36-0.37-0.79-0.65-1.27-0.82c-0.66-0.24-1.35-0.37-2.05-0.38
		c-1-0.05-1.4-0.06-3.38-0.06l-1.79,0c-2.3,0-2.68,0.02-3.74,0.06c-0.7,0.01-1.39,0.14-2.05,0.38c-0.48,0.18-0.91,0.46-1.27,0.82
		c-0.37,0.36-0.65,0.79-0.82,1.27c-0.24,0.66-0.37,1.35-0.38,2.05c-0.04,0.94-0.06,1.35-0.06,3.04v2.82c0,1.69,0.02,2.1,0.06,3.04
		c0.01,0.7,0.14,1.39,0.38,2.05c0.18,0.48,0.46,0.91,0.82,1.27c0.36,0.37,0.79,0.65,1.27,0.82c0.66,0.24,1.35,0.37,2.05,0.38
		c0.95,0.04,1.35,0.06,3.07,0.06h2.41c2.02,0,2.42-0.02,3.43-0.06c0.7-0.01,1.39-0.14,2.05-0.38c0.48-0.18,0.91-0.46,1.27-0.82
		c0.37-0.36,0.65-0.79,0.82-1.27c0.24-0.66,0.37-1.35,0.38-2.05c0.04-0.95,0.06-1.35,0.06-3.07V23.3c0-2.02-0.02-2.42-0.06-3.43
		C33.3,19.18,33.18,18.48,32.93,17.83z M24.34,29.98c-3.12,0-5.65-2.53-5.65-5.65c0-3.12,2.53-5.65,5.65-5.65
		c3.12,0,5.65,2.53,5.65,5.65C29.99,27.45,27.46,29.98,24.34,29.98z M29.99,19.82c-0.62,0-1.13-0.51-1.13-1.13
		c0-0.62,0.51-1.13,1.13-1.13v0c0.62,0,1.13,0.51,1.13,1.13C31.12,19.32,30.61,19.82,29.99,19.82z"/>
</g>
</svg>
