<svg width="34" height="34" viewBox="0 0 34 34" fill="none" xmlns="http://www.w3.org/2000/svg">
<g clip-path="url(#clip0)">
<path d="M17 0C7.57273 0 0 7.57273 0 17C0 24.2636 4.48182 30.4455 10.8182 32.9182C10.6636 31.5273 10.5091 29.5182 10.8182 27.9727C11.1273 26.5818 12.8273 19.4727 12.8273 19.4727C12.8273 19.4727 12.3636 18.5455 12.3636 17C12.3636 14.6818 13.7545 12.8273 15.4545 12.8273C16.8455 12.8273 17.6182 13.9091 17.6182 15.1455C17.6182 16.5364 16.6909 18.8545 16.2273 20.8636C15.7636 22.5636 17.1545 23.9545 18.7 23.9545C21.7909 23.9545 24.1091 20.7091 24.1091 16.2273C24.1091 12.2091 21.1727 9.27273 17 9.27273C12.2091 9.27273 9.27273 12.8273 9.27273 16.6909C9.27273 18.0818 9.89091 19.7818 10.5091 20.5545C10.6636 20.7091 10.6636 20.8636 10.6636 21.0182C10.5091 21.4818 10.2 22.7182 10.2 23.0273C10.2 23.3364 9.89091 23.3364 9.58182 23.1818C7.41818 22.2545 6.18182 19.1636 6.18182 16.6909C6.18182 11.2818 10.0455 6.33636 17.4636 6.33636C23.3364 6.33636 27.9727 10.5091 27.9727 16.2273C27.9727 22.1 24.2636 26.8909 19.1636 26.8909C17.4636 26.8909 15.7636 25.9636 15.3 24.8818C15.3 24.8818 14.3727 28.1273 14.2182 28.9C13.9091 30.4455 12.8273 32.3 12.0545 33.3818C13.6 33.8455 15.3 34.1545 17.1545 34.1545C26.5818 34.1545 34.1545 26.5818 34.1545 17.1545C34 7.57273 26.4273 0 17 0Z" fill="white"/>
</g>
<defs>
<clipPath id="clip0">
<rect width="34" height="34" fill="white"/>
</clipPath>
</defs>
</svg>
