<?xml version="1.0" encoding="utf-8"?>
<!-- Generator: Adobe Illustrator 27.8.0, SVG Export Plug-In . SVG Version: 6.00 Build 0)  -->
<svg version="1.1" id="Layer_1" xmlns="http://www.w3.org/2000/svg" xmlns:xlink="http://www.w3.org/1999/xlink" x="0px" y="0px"
	 viewBox="0 0 40 40" style="enable-background:new 0 0 40 40;" xml:space="preserve">
<style type="text/css">
	.st0{fill:#FFFFFF;}
</style>
<path class="st0" d="M20,0C9,0,0,9,0,20s9,20,20,20s20-9,20-20S31,0,20,0z M30,15.3V18c-1.3,0-2.5-0.2-3.7-0.7
	c-0.8-0.3-1.5-0.7-2.1-1.2l0,8.3c0,1.9-0.8,3.6-2.1,5c-1.1,1.1-2.5,1.8-4,2c-0.4,0.1-0.7,0.1-1.1,0.1c-1.6,0-3.1-0.5-4.4-1.5
	c-0.2-0.2-0.5-0.4-0.7-0.6c-1.5-1.4-2.2-3.4-2.1-5.4c0.1-1.6,0.7-3.1,1.8-4.2c1.4-1.5,3.3-2.4,5.4-2.4c0.4,0,0.7,0,1.1,0.1v1v2.8
	C17.9,21,17.5,21,17.1,21c-1.9,0-3.4,1.5-3.4,3.4c0,1.2,0.7,2.3,1.6,2.8c0.5,0.3,1,0.4,1.5,0.5c0.4,0,0.9,0,1.2-0.2
	c1.3-0.4,2.3-1.7,2.3-3.2l0-5.6V8.6h3.7c0,0.4,0,0.7,0.1,1.1c0.3,1.4,1.1,2.6,2.2,3.5c1,0.7,2.2,1.2,3.5,1.2h0V15.3z"/>
</svg>
