<?xml version="1.0" encoding="utf-8"?>
<!-- Generator: Adobe Illustrator 24.0.1, SVG Export Plug-In . SVG Version: 6.00 Build 0)  -->
<svg version="1.1" id="Layer_1" xmlns="http://www.w3.org/2000/svg" xmlns:xlink="http://www.w3.org/1999/xlink" x="0px" y="0px"
	 viewBox="0 0 48 48" style="enable-background:new 0 0 48 48;" xml:space="preserve">
<style type="text/css">
	.st0{fill:#FFFFFF;}
</style>
<g>
	<polygon class="st0" points="20.37,30.31 30.25,24.33 20.37,18.35 	"/>
	<path class="st0" d="M24.34,0.33c-13.25,0-24,10.75-24,24c0,13.25,10.75,24,24,24c13.25,0,24-10.75,24-24
		C48.34,11.08,37.6,0.33,24.34,0.33z M39.87,25.39c-0.01,10.01-0.48,10.24-14.55,10.24h-1.96c-14.07,0-14.53-0.23-14.55-10.24v-2.12
		c0.01-9.78,0.46-10.22,13.61-10.23h3.84c13.15,0.02,13.59,0.45,13.61,10.23V25.39z"/>
</g>
</svg>
